<svg width="24" height="24" viewBox="0 0 24 24" fill="none" xmlns="http://www.w3.org/2000/svg">
<path d="M12 2.25076C15.22 2.25076 17.908 4.70576 18.2 7.91276L18.646 12.8228C18.686 13.2548 18.945 13.6348 19.332 13.8278L19.335 13.8298C20.202 14.2638 20.75 15.1498 20.75 16.1188V16.5008C20.75 17.7438 19.743 18.7508 18.5 18.7508H14.75V19.2508C14.75 20.7138 13.608 21.9088 12.168 21.9958L12 22.0008C10.481 22.0008 9.25 20.7698 9.25 19.2508V18.7508H5.5C4.257 18.7508 3.25 17.7438 3.25 16.5008V16.1188C3.25 15.1488 3.798 14.2638 4.665 13.8298L4.668 13.8278C5.055 13.6348 5.315 13.2548 5.354 12.8238L5.8 7.91276C6.092 4.70576 8.78 2.25076 12 2.25076ZM13.25 18.7508H10.75V19.2508C10.75 19.8978 11.242 20.4308 11.872 20.4948L12 20.5008C12.69 20.5008 13.25 19.9408 13.25 19.2508V18.7508ZM12 3.75076C9.556 3.75076 7.515 5.61476 7.294 8.04776L6.848 12.9588C6.762 13.9078 6.191 14.7438 5.338 15.1698C4.977 15.3508 4.75 15.7178 4.75 16.1188V16.5008C4.75 16.9148 5.086 17.2508 5.5 17.2508H18.5C18.914 17.2508 19.25 16.9148 19.25 16.5008V16.1188C19.25 15.7178 19.023 15.3508 18.665 15.1718C17.809 14.7438 17.238 13.9078 17.152 12.9588L16.706 8.04876C16.485 5.61376 14.444 3.75076 12 3.75076Z" fill="#2459AD"/>
</svg>
