<svg width="16" height="16" viewBox="0 0 16 16" fill="none" xmlns="http://www.w3.org/2000/svg">
<path d="M11.3102 6.20577C11.2873 6.14486 11.2484 6.0928 11.1986 6.05618C11.1488 6.01955 11.0902 6 11.0303 6H4.96966C4.90972 6 4.85113 6.01955 4.8013 6.05618C4.75147 6.09281 4.71263 6.14487 4.68969 6.20578C4.66676 6.26669 4.66076 6.33371 4.67245 6.39837C4.68414 6.46303 4.71301 6.52242 4.75539 6.56904L7.78569 9.90236C7.81383 9.93332 7.84723 9.95787 7.884 9.97463C7.92076 9.99138 7.96016 10 7.99996 10C8.03975 10 8.07916 9.99138 8.11592 9.97463C8.15269 9.95787 8.18609 9.93332 8.21423 9.90236L11.2445 6.56904C11.2869 6.52242 11.3158 6.46303 11.3275 6.39837C11.3392 6.3337 11.3332 6.26668 11.3102 6.20577Z" fill="#22313E"/>
</svg>
