<svg width="16" height="16" viewBox="0 0 16 16" fill="none" xmlns="http://www.w3.org/2000/svg">
<path d="M7.6098 10.8492L3.15975 6.64095C3.05675 6.54362 3 6.41369 3 6.27515C3 6.13662 3.05675 6.00669 3.15975 5.90936L3.48739 5.59945C3.70089 5.39779 4.04788 5.39779 4.26105 5.59945L7.99793 9.13319L11.739 5.59553C11.842 5.4982 11.9793 5.44446 12.1257 5.44446C12.2723 5.44446 12.4096 5.4982 12.5127 5.59553L12.8402 5.90543C12.9433 6.00284 13 6.13269 13 6.27123C13 6.40977 12.9433 6.5397 12.8402 6.63703L8.38614 10.8492C8.2828 10.9467 8.14484 11.0003 7.99817 11C7.85094 11.0003 7.71305 10.9467 7.6098 10.8492Z" fill="#80888F"/>
<mask id="mask0_4973_299" style="mask-type:alpha" maskUnits="userSpaceOnUse" x="3" y="5" width="10" height="6">
<path d="M7.6098 10.8492L3.15975 6.64095C3.05675 6.54362 3 6.41369 3 6.27515C3 6.13662 3.05675 6.00669 3.15975 5.90936L3.48739 5.59945C3.70089 5.39779 4.04788 5.39779 4.26105 5.59945L7.99793 9.13319L11.739 5.59553C11.842 5.4982 11.9793 5.44446 12.1257 5.44446C12.2723 5.44446 12.4096 5.4982 12.5127 5.59553L12.8402 5.90543C12.9433 6.00284 13 6.13269 13 6.27123C13 6.40977 12.9433 6.5397 12.8402 6.63703L8.38614 10.8492C8.2828 10.9467 8.14484 11.0003 7.99817 11C7.85094 11.0003 7.71305 10.9467 7.6098 10.8492Z" fill="white"/>
</mask>
<g mask="url(#mask0_4973_299)">
<rect x="-7" y="23.5" width="30" height="30" transform="rotate(-90 -7 23.5)" fill="#80888F"/>
</g>
</svg>
