<svg width="148" height="24" viewBox="0 0 148 24" fill="none" xmlns="http://www.w3.org/2000/svg">
<path d="M131.326 20.4186C140.061 20.4186 147.142 16.6267 147.142 11.9492C147.142 7.27163 140.061 3.47971 131.326 3.47971C122.591 3.47971 115.51 7.27163 115.51 11.9492C115.51 16.6267 122.591 20.4186 131.326 20.4186Z" fill="#F7171E"/>
<path d="M13.7395 8.11156C13.7395 10.4421 13.0726 12.1095 11.745 13.1137L14.5145 22.7326H9.8712L7.4384 14.2694H5.99652V22.7326H1.35327V1.18945H7.5464C11.6752 1.18945 13.7395 3.24208 13.7395 7.34735V8.11156ZM7.55276 9.65261C8.58178 9.65261 9.10262 9.14102 9.10262 8.11156V7.34102C9.10262 6.31787 8.58812 5.79997 7.55276 5.79997H6.00288V9.64628H7.55276V9.65261Z" fill="#2459AD"/>
<path d="M28.4444 1.18945V5.8063H20.7078V9.65261H26.9008V14.2694H20.7078V18.1157H28.4444V22.7326H16.0645V1.18945H28.4444Z" fill="#2459AD"/>
<path d="M39.4772 20.4186H34.4464L33.8556 22.7238H29.2188L34.637 1.18066H39.2802L44.6984 22.7238H40.0552L39.4772 20.4186ZM35.6088 15.8018H38.3148L36.9554 10.4144L35.6088 15.8018Z" fill="#2459AD"/>
<path d="M46.2422 22.7326V1.18945H50.8854V18.1157H58.6222V22.7326H46.2422Z" fill="#2459AD"/>
<path d="M65.5646 5.8063V22.7326H60.9214V5.8063H57.053V1.18945H69.433V5.8063H65.5646Z" fill="#2459AD"/>
<path d="M83.3635 1.18945V5.8063H75.6269V9.65261H81.8199V14.2694H75.6269V18.1157H83.3635V22.7326H70.9837V1.18945H83.3635Z" fill="#2459AD"/>
<path d="M97.2927 7.33856V8.87961H92.6493V7.33856C92.6493 6.31541 92.1349 5.7975 91.0995 5.7975C90.0641 5.7975 89.5497 6.30909 89.5497 7.33856V16.5723C89.5497 17.5954 90.0641 18.1132 91.0995 18.1132C92.1349 18.1132 92.6493 17.6017 92.6493 16.5723V15.0312H97.2927V16.5723C97.2927 20.6775 95.2283 22.7301 91.0995 22.7301C86.9707 22.7301 84.9062 20.6775 84.9062 16.5723V7.33856C84.9062 3.2333 86.9707 1.18066 91.0995 1.18066C95.2283 1.18698 97.2927 3.23961 97.2927 7.33856Z" fill="#2459AD"/>
<path d="M103.479 14.2694V22.7326H98.8359V1.18945H103.479V9.65261H106.573V1.18945H111.216V22.7326H106.573V14.2694H103.479Z" fill="#2459AD"/>
<path d="M124.867 9.4225C124.391 9.4225 124.156 9.66249 124.156 10.1362H121.996C121.996 8.2288 122.955 7.27512 124.867 7.27512H124.873C126.785 7.27512 127.744 8.2288 127.744 10.1362V10.4962C127.744 11.7846 127.147 12.7067 125.947 13.2499C124.746 13.7993 124.149 14.3109 124.149 14.7909V15.1509H127.751V17.2983H121.99V14.7909C121.99 13.5025 122.587 12.5867 123.787 12.0372C124.988 11.4877 125.585 10.9762 125.585 10.4962V10.1362C125.585 9.65617 125.35 9.4225 124.867 9.4225Z" fill="#F6FAFC"/>
<path d="M134.222 7.27512V13.0035H134.94V15.1509H134.222V17.2983H132.063V15.1509H128.461V13.0035L131.917 7.27512H134.222ZM132.063 12.9972V10.8499L130.767 12.9972H132.063Z" fill="#F6FAFC"/>
<path d="M139.267 9.4225H135.665V7.27512H141.426V9.4225C140.124 11.9614 139.165 14.5825 138.549 17.2983H136.389C137.012 14.5509 137.971 11.9236 139.267 9.4225Z" fill="#F6FAFC"/>
</svg>
