<svg width="350" height="257" viewBox="0 0 350 257" fill="none" xmlns="http://www.w3.org/2000/svg">
<g clip-path="url(#clip0_3286_69498)">
<path d="M77.7052 70.9184L12.4234 114.455L76.7257 210.288L142.007 166.752L77.7052 70.9184Z" fill="#F5F5F5"/>
<path d="M108.273 162.219L107.528 166.79L75.0735 162.126L75.8182 157.555L108.273 162.219Z" fill="#E0E0E0"/>
<path d="M91.9292 145.913L96.5839 146.58L91.423 178.437L86.7626 177.764L91.9292 145.913Z" fill="#E0E0E0"/>
<path d="M62.0638 105.425C62.1104 105.489 55.5706 109.938 47.4541 115.344C39.3376 120.75 32.7221 125.089 32.6756 125.02C32.6291 124.95 39.1688 120.507 47.2854 115.095C55.4019 109.683 61.9882 105.356 62.0638 105.425Z" fill="#E0E0E0"/>
<path d="M86.0469 99.416C86.0934 99.4856 75.2132 106.817 61.7496 115.797C48.2861 124.776 37.3128 131.998 37.2779 131.934C37.2429 131.87 48.0999 124.527 61.5809 115.547C75.0619 106.568 86.0003 99.3464 86.0469 99.416Z" fill="#E0E0E0"/>
<path d="M90.8587 106.585C90.9052 106.655 80.025 113.993 66.5614 122.972C53.0979 131.951 42.1245 139.173 42.0896 139.103C42.0547 139.034 52.9233 131.702 66.3927 122.717C79.8621 113.732 90.8121 106.516 90.8587 106.585Z" fill="#E0E0E0"/>
<path d="M95.6704 113.761C95.7169 113.83 84.8367 121.168 71.3732 130.142C57.9096 139.115 46.9363 146.348 46.9363 146.279C46.9363 146.209 57.7641 138.871 71.2335 129.892C84.7029 120.913 95.6238 113.691 95.6704 113.761Z" fill="#E0E0E0"/>
<path d="M100.465 120.936C100.511 121.006 89.631 128.338 76.1674 137.317C62.7039 146.296 51.7306 153.518 51.7015 153.448C51.6724 153.379 62.5468 146.047 76.0278 137.067C89.5088 128.088 100.465 120.867 100.465 120.936Z" fill="#E0E0E0"/>
<path d="M296 135.133L241.174 171.696L295.176 252.178L350.002 215.615L296 135.133Z" fill="#F5F5F5"/>
<path d="M321.676 211.825L321.054 215.665L293.795 211.75L294.418 207.91L321.676 211.825Z" fill="#E0E0E0"/>
<path d="M307.945 198.13L311.861 198.693L307.521 225.445L303.611 224.882L307.945 198.13Z" fill="#E0E0E0"/>
<path d="M282.845 164.156C282.892 164.226 277.405 167.967 270.586 172.509C263.767 177.051 258.205 180.682 258.158 180.63C258.112 180.577 263.604 176.825 270.417 172.277C277.23 167.729 282.799 164.057 282.845 164.156Z" fill="#E0E0E0"/>
<path d="M303.006 159.081C303.052 159.15 293.923 165.322 282.642 172.857C271.36 180.392 262.126 186.459 262.08 186.39C262.033 186.32 271.162 180.148 282.444 172.607C293.725 165.067 302.942 159.011 303.006 159.081Z" fill="#E0E0E0"/>
<path d="M307.049 165.102C307.096 165.171 297.967 171.343 286.685 178.884C275.404 186.424 266.17 192.48 266.123 192.411C266.077 192.341 275.177 186.198 286.487 178.657C297.798 171.117 307.014 165.038 307.049 165.102Z" fill="#E0E0E0"/>
<path d="M311.087 171.117C311.134 171.186 301.999 177.358 290.723 184.899C279.447 192.44 270.208 198.495 270.161 198.426C270.115 198.356 279.244 192.19 290.525 184.644C301.807 177.097 311.047 171.059 311.087 171.117Z" fill="#E0E0E0"/>
<path d="M315.16 177.155C315.207 177.225 306.078 183.391 294.796 190.931C283.514 198.472 274.281 204.528 274.234 204.464C274.188 204.4 283.316 198.223 294.598 190.682C305.88 183.141 315.084 177.085 315.16 177.155Z" fill="#E0E0E0"/>
<path d="M209.256 74.4442L149.434 42.5458L102.321 130.364L162.143 162.262L209.256 74.4442Z" fill="#F5F5F5"/>
<path d="M151.91 134.788L148.117 136.081L138.481 109.532L142.275 108.233L151.91 134.788Z" fill="#E0E0E0"/>
<path d="M157.728 115.739L159.113 119.55L132.663 128.581L131.278 124.77L157.728 115.739Z" fill="#E0E0E0"/>
<path d="M176.521 76.5676C176.475 76.6546 170.412 73.5107 162.971 69.5489C155.529 65.5871 149.542 62.2982 149.589 62.2112C149.635 62.1242 155.704 65.2681 163.145 69.2298C170.587 73.1916 176.568 76.4748 176.521 76.5676Z" fill="#E0E0E0"/>
<path d="M190.881 92.3625C190.835 92.4495 180.792 87.1826 168.452 80.6047C156.111 74.0269 146.15 68.6208 146.197 68.5337C146.243 68.4467 156.28 73.7079 168.62 80.2915C180.961 86.8751 190.928 92.2755 190.881 92.3625Z" fill="#E0E0E0"/>
<path d="M187.355 98.9345C187.309 99.0215 177.266 93.7604 164.926 87.1825C152.585 80.6047 142.624 75.1928 142.671 75.1058C142.717 75.0187 152.754 80.2857 165.094 86.8635C177.435 93.4413 187.402 98.8475 187.355 98.9345Z" fill="#E0E0E0"/>
<path d="M183.829 105.507C183.783 105.594 173.74 100.332 161.4 93.7546C149.059 87.1767 139.098 81.788 139.145 81.6836C139.191 81.5792 149.228 86.8577 161.568 93.4356C173.909 100.013 183.876 105.42 183.829 105.507Z" fill="#E0E0E0"/>
<path d="M180.303 112.079C180.257 112.166 170.214 106.905 157.874 100.327C145.533 93.7488 135.566 88.3427 135.619 88.2557C135.671 88.1687 145.702 93.4298 158.043 100.008C170.383 106.585 180.35 111.992 180.303 112.079Z" fill="#E0E0E0"/>
<path opacity="0.2" d="M180.612 0H179.111V25.5109H180.612V0Z" fill="black"/>
<path d="M144.818 56.3757H214.905C214.905 56.3757 208.435 25.5225 179.332 25.5225C153.446 25.5225 144.818 56.3757 144.818 56.3757Z" fill="#2459AD"/>
<path d="M180.612 0H179.111V25.5109H180.612V0Z" fill="#2459AD"/>
<path d="M335.914 255.126C335.914 255.208 260.712 255.277 167.963 255.277C75.2132 255.277 0 255.225 0 255.126C0 255.028 75.1899 254.976 167.963 254.976C260.736 254.976 335.914 255.039 335.914 255.126Z" fill="#263238"/>
<path d="M18.5954 218.797C19.5791 218.868 20.5384 219.136 21.4161 219.584C22.2937 220.033 23.0718 220.653 23.7038 221.408C24.9605 222.926 25.8503 224.712 26.3046 226.628C27.2879 230.294 26.6828 234.627 25.6355 238.276C21.6558 236.855 19.1946 232.62 18.0717 230.393C16.3262 226.878 15.2847 219.453 18.5779 218.792" fill="#2459AD"/>
<path d="M31.3665 242.725C30.7689 241.801 30.4272 240.736 30.3761 239.637C30.325 238.539 30.5663 237.447 31.0756 236.472C31.6008 235.506 32.3138 234.654 33.1729 233.966C34.0321 233.277 35.0201 232.767 36.0793 232.464C37.051 232.162 38.1798 232.04 39.0234 232.603C39.4037 232.889 39.6999 233.273 39.881 233.712C40.0622 234.152 40.1217 234.632 40.0532 235.103C39.9005 236.045 39.4989 236.93 38.8896 237.667C36.9521 240.283 34.6015 242.458 31.3258 242.725" fill="#2459AD"/>
<path d="M31.8087 254.981C31.7223 254.735 31.6619 254.48 31.6283 254.222C31.5236 253.676 31.3839 252.974 31.2152 252.133C30.6929 249.83 30.5476 247.458 30.7847 245.109C31.059 242.748 31.9609 240.503 33.3971 238.606C33.8359 238.039 34.3419 237.527 34.904 237.081C35.0568 236.96 35.216 236.848 35.3811 236.744C35.4336 236.701 35.4925 236.666 35.5557 236.64C34.8197 237.267 34.1473 237.964 33.5483 238.722C32.1879 240.621 31.3312 242.832 31.0581 245.149C30.6857 247.852 31.1454 250.329 31.413 252.11C31.5527 252.998 31.669 253.717 31.733 254.216C31.7789 254.469 31.8042 254.725 31.8087 254.981Z" fill="#263238"/>
<path d="M19.8754 224.383C19.9418 224.475 19.9965 224.574 20.0383 224.679C20.143 224.911 20.2826 225.201 20.4456 225.567C20.8005 226.338 21.295 227.458 21.8943 228.844C23.0929 231.623 24.6987 235.486 26.3744 239.79C28.0501 244.094 29.4756 248.021 30.4472 250.88C30.9476 252.307 31.3374 253.467 31.6109 254.274C31.7331 254.657 31.8262 254.964 31.9018 255.202C31.9433 255.308 31.9726 255.419 31.9891 255.532C31.9301 255.434 31.8832 255.329 31.8494 255.219C31.7622 254.987 31.6516 254.686 31.5062 254.309L30.2785 250.944C29.237 248.108 27.7824 244.187 26.1126 239.888C24.4427 235.59 22.8602 231.715 21.7081 228.919C21.1263 227.545 20.6783 226.425 20.3467 225.607C20.1954 225.236 20.0732 224.94 19.9801 224.702C19.9364 224.599 19.9014 224.492 19.8754 224.383Z" fill="#263238"/>
<path d="M27.0784 246.872C25.8812 244.885 24.2268 243.211 22.2519 241.987C20.277 240.764 18.0384 240.026 15.7211 239.836C14.5574 239.755 13.1261 239.952 12.6025 240.996C12.0788 242.04 12.777 243.316 13.58 244.163C15.2859 245.943 17.482 247.178 19.8915 247.715C22.3009 248.252 24.8158 248.066 27.1191 247.18" fill="#2459AD"/>
<path d="M17.5131 242.98C17.7598 242.968 18.0071 242.978 18.2521 243.009C18.5389 243.024 18.8246 243.057 19.1074 243.108C19.439 243.171 19.8288 243.206 20.2361 243.322C20.6914 243.418 21.1402 243.542 21.5801 243.694C22.0898 243.857 22.5891 244.05 23.0754 244.274C24.194 244.773 25.2519 245.398 26.229 246.136C27.1947 246.891 28.0694 247.755 28.8356 248.711C29.1664 249.127 29.4715 249.563 29.749 250.016C29.9999 250.407 30.2291 250.812 30.4356 251.228C30.6104 251.567 30.7658 251.916 30.9011 252.273C31.0177 252.536 31.1168 252.808 31.1978 253.085C31.284 253.316 31.3483 253.555 31.3898 253.798C31.3258 253.798 31.0465 252.8 30.261 251.315C30.0472 250.917 29.8122 250.529 29.557 250.155C29.2735 249.716 28.9666 249.292 28.6377 248.885C27.1159 247.01 25.1752 245.516 22.9707 244.523C22.4645 244.303 21.9816 244.094 21.5103 243.943C21.0777 243.786 20.6368 243.652 20.1896 243.543C18.5604 243.096 17.5073 243.044 17.5131 242.98Z" fill="#263238"/>
<path d="M281.623 61.1844C279.913 61.573 279.081 63.5394 278.918 65.2796C278.755 67.0198 278.976 68.8644 278.243 70.4537C277.417 72.2403 275.444 73.5628 275.38 75.5292C275.34 76.7299 276.055 77.8494 276.02 79.0618C275.962 81.034 273.949 82.5421 273.838 84.4911C273.763 85.9122 274.711 87.2696 274.484 88.6733C274.31 89.7638 273.454 90.6223 273.094 91.6664C272.378 93.7546 273.815 96.0458 275.683 97.2175C276.729 97.8734 277.907 98.2935 279.133 98.4486C280.359 98.6037 281.604 98.4901 282.782 98.1155C283.959 97.741 285.04 97.1146 285.95 96.2802C286.859 95.4459 287.575 94.4236 288.047 93.2848C289.082 90.7789 288.856 87.954 288.629 85.2568C287.93 76.8421 287.411 68.4158 287.069 59.9779" fill="#263238"/>
<path d="M276.655 90.8717C277.007 90.6536 277.281 90.3311 277.44 89.9494C277.608 89.4955 277.675 89.0107 277.638 88.5283C277.574 87.8887 277.431 87.2594 277.213 86.6547C276.935 85.8946 276.831 85.0818 276.911 84.2765C277.056 83.3716 277.708 82.6291 278.295 81.8982C278.612 81.5405 278.876 81.1402 279.081 80.7091C279.286 80.2731 279.319 79.7763 279.174 79.317C278.871 78.3715 277.94 77.6754 277.516 76.5791C277.316 76.0364 277.284 75.4466 277.423 74.8854C277.555 74.3592 277.75 73.8508 278.004 73.3714C278.496 72.508 278.886 71.5913 279.168 70.6393C279.575 68.8006 279.383 67.043 279.663 65.5986C279.817 64.4419 280.332 63.3626 281.135 62.5127C281.362 62.2838 281.62 62.0885 281.903 61.9327C282 61.8821 282.104 61.845 282.211 61.8225C281.846 62.0226 281.511 62.2725 281.216 62.565C280.473 63.4233 280.005 64.484 279.872 65.6102C279.77 66.3796 279.716 67.1545 279.709 67.9305C279.707 68.8437 279.618 69.7547 279.441 70.6509C279.164 71.6248 278.773 72.5631 278.278 73.4468C277.841 74.3575 277.44 75.4248 277.824 76.4225C278.208 77.4202 279.133 78.1105 279.488 79.1778C279.648 79.7051 279.609 80.2726 279.377 80.7729C279.151 81.2474 278.857 81.6869 278.505 82.0781C277.923 82.8089 277.289 83.505 277.149 84.3171C277.068 85.0873 277.159 85.866 277.417 86.5967C277.625 87.2202 277.754 87.8671 277.801 88.5225C277.829 89.0272 277.74 89.5317 277.539 89.9958C277.414 90.2868 277.213 90.5392 276.957 90.7267C276.866 90.7932 276.763 90.8423 276.655 90.8717Z" fill="#455A64"/>
<path d="M272.105 104.625L266.868 119.706L244.968 120.867L241.314 128.987L264.18 131.308C265.26 131.75 266.419 131.969 267.587 131.952C268.755 131.935 269.907 131.682 270.974 131.209C272.041 130.736 273.001 130.052 273.795 129.198C274.589 128.345 275.202 127.34 275.596 126.244L281.699 109.26L272.105 104.625Z" fill="#E8BAA8"/>
<path d="M317.377 246.93C317.377 246.93 301.33 196.106 300.987 194.458C300.678 192.962 306.805 156.389 307.585 146.894L285.9 147.7V147.915L276.684 148.425L284.934 252.325H294.912L293.923 217.84C300.079 234.308 308.9 251.095 308.9 251.095L317.377 246.93Z" fill="#E8BAA8"/>
<path d="M294.33 230.213C294.33 229.9 294.208 218.658 294.208 218.658C294.086 219.331 290.386 208.902 290.473 208.269C290.52 207.939 294.33 230.213 294.33 230.213Z" fill="#A36957"/>
<path d="M290.054 203.327C290.003 203.534 289.981 203.747 289.99 203.96C289.958 204.539 289.958 205.12 289.99 205.7C289.99 206.065 290.042 206.46 290.089 206.889C290.136 207.318 290.2 207.771 290.298 208.24C290.505 209.267 290.779 210.278 291.119 211.268C291.84 213.374 292.643 215.213 293.208 216.547C293.475 217.127 293.708 217.678 293.906 218.119C293.977 218.324 294.075 218.519 294.197 218.699C294.166 218.498 294.107 218.303 294.022 218.119C293.888 217.736 293.685 217.185 293.44 216.506C292.928 215.149 292.16 213.293 291.445 211.21C291.106 210.235 290.828 209.239 290.613 208.229C290.508 207.765 290.438 207.318 290.374 206.901C290.31 206.483 290.264 206.088 290.234 205.74C290.165 205.021 290.136 204.441 290.118 204.035C290.129 203.797 290.108 203.559 290.054 203.327Z" fill="#A36957"/>
<path d="M284.748 252.853V251.919L294.971 251.472L295 255.329L294.371 255.37C291.561 255.533 280.087 256.008 278.214 255.446C276.113 254.819 284.748 252.853 284.748 252.853Z" fill="#455A64"/>
<path d="M295.133 255.097C295.075 255.101 295.017 255.101 294.959 255.097L294.458 255.132L292.608 255.214C291.049 255.277 288.89 255.335 286.511 255.347C284.131 255.359 281.967 255.318 280.401 255.272L278.557 255.196H278.051H277.876C277.934 255.191 277.993 255.191 278.051 255.196H278.557L280.407 255.231C281.967 255.231 284.125 255.277 286.505 255.266C288.885 255.254 291.049 255.213 292.608 255.173L294.458 255.126H295.133V255.097Z" fill="#263238"/>
<path d="M281.414 255.422C281.329 255.119 281.212 254.825 281.065 254.546C280.881 254.289 280.668 254.054 280.431 253.845C280.748 253.958 281.012 254.185 281.17 254.483C281.362 254.756 281.449 255.09 281.414 255.422Z" fill="#263238"/>
<path d="M284.428 253.897C284.428 253.897 284.259 253.74 284.108 253.508C283.957 253.276 283.863 253.073 283.893 253.056C283.922 253.038 284.061 253.207 284.213 253.439C284.364 253.671 284.457 253.879 284.428 253.897Z" fill="#263238"/>
<path d="M285.254 253.485C285.254 253.514 285.068 253.404 284.893 253.247C284.719 253.09 284.591 252.945 284.614 252.922C284.637 252.899 284.8 253.003 284.975 253.16C285.149 253.317 285.277 253.433 285.254 253.485Z" fill="#263238"/>
<path d="M285.772 252.499C285.601 252.561 285.418 252.585 285.237 252.568C285.058 252.592 284.877 252.574 284.707 252.516C284.876 252.454 285.057 252.43 285.237 252.447C285.417 252.422 285.6 252.44 285.772 252.499Z" fill="#263238"/>
<path d="M285.946 251.826C285.773 251.938 285.571 251.998 285.365 252C285.167 252.026 284.966 251.998 284.783 251.919C284.975 251.886 285.17 251.871 285.365 251.872C285.556 251.838 285.751 251.823 285.946 251.826Z" fill="#263238"/>
<path d="M284.085 253.009C283.867 253.05 283.644 253.05 283.427 253.009C283.192 252.981 282.96 252.93 282.735 252.858C282.595 252.82 282.46 252.765 282.333 252.696C282.256 252.651 282.198 252.578 282.17 252.493C282.16 252.445 282.163 252.394 282.181 252.348C282.198 252.301 282.229 252.261 282.269 252.232C282.43 252.154 282.607 252.113 282.786 252.111C282.965 252.11 283.142 252.148 283.305 252.223C283.467 252.298 283.611 252.408 283.726 252.545C283.84 252.682 283.923 252.842 283.968 253.015C283.98 253.072 283.98 253.132 283.968 253.189C283.902 252.979 283.8 252.783 283.666 252.609C283.511 252.435 283.309 252.31 283.084 252.249C282.826 252.166 282.546 252.187 282.304 252.307C282.205 252.383 282.246 252.505 282.357 252.574C282.475 252.638 282.6 252.691 282.729 252.731C282.948 252.803 283.171 252.859 283.398 252.899C283.834 252.992 284.085 252.992 284.085 253.009Z" fill="#263238"/>
<path d="M283.916 253.044C283.831 252.909 283.802 252.747 283.834 252.592C283.856 252.421 283.917 252.258 284.015 252.116C284.069 252.019 284.147 251.937 284.242 251.879C284.337 251.82 284.444 251.786 284.556 251.78C284.622 251.795 284.679 251.834 284.717 251.89C284.755 251.946 284.77 252.015 284.759 252.081C284.745 252.185 284.707 252.284 284.649 252.371C284.56 252.515 284.457 252.649 284.34 252.771C284.239 252.887 284.112 252.977 283.968 253.032C283.968 253.032 284.096 252.916 284.276 252.708C284.381 252.588 284.473 252.458 284.55 252.319C284.637 252.18 284.701 251.93 284.55 251.901C284.399 251.872 284.224 252.052 284.125 252.18C284.033 252.306 283.969 252.45 283.939 252.603C283.915 252.749 283.907 252.897 283.916 253.044Z" fill="#263238"/>
<path d="M294.918 252.325C294.918 252.325 294.627 252.325 294.168 252.354C293.569 252.425 293.003 252.663 292.533 253.039C292.063 253.415 291.708 253.915 291.509 254.483C291.357 254.918 291.346 255.213 291.322 255.208C291.299 255.202 291.322 255.132 291.322 255.005C291.337 254.818 291.372 254.633 291.427 254.454C291.612 253.86 291.968 253.333 292.451 252.94C292.94 252.553 293.534 252.321 294.156 252.273C294.349 252.249 294.545 252.249 294.738 252.273C294.8 252.282 294.861 252.3 294.918 252.325Z" fill="#263238"/>
<path d="M290.025 254.285C289.537 254.399 289.036 254.447 288.536 254.43C288.037 254.455 287.538 254.412 287.052 254.303C287.052 254.268 287.715 254.303 288.536 254.303C289.356 254.303 290.019 254.251 290.025 254.285Z" fill="#263238"/>
<path d="M292.015 254.268C292.015 254.268 291.963 254.407 291.893 254.558C291.823 254.709 291.788 254.848 291.753 254.842C291.718 254.836 291.701 254.686 291.782 254.506C291.864 254.326 291.992 254.239 292.015 254.268Z" fill="#263238"/>
<path d="M292.765 253.334C292.765 253.334 292.725 253.462 292.62 253.566C292.515 253.671 292.41 253.74 292.381 253.717C292.352 253.694 292.422 253.589 292.527 253.479C292.632 253.369 292.736 253.305 292.765 253.334Z" fill="#263238"/>
<path d="M293.836 252.905C293.836 252.94 293.696 252.94 293.545 252.992C293.394 253.044 293.289 253.125 293.26 253.102C293.231 253.079 293.318 252.94 293.504 252.876C293.69 252.812 293.848 252.87 293.836 252.905Z" fill="#263238"/>
<path d="M294.598 252.696C294.598 252.731 294.557 252.783 294.47 252.812C294.383 252.841 294.307 252.847 294.296 252.812C294.284 252.777 294.342 252.725 294.424 252.696C294.505 252.667 294.587 252.667 294.598 252.696Z" fill="#263238"/>
<path d="M308.696 251.954L308.312 251.101L317.452 246.524L319.064 250.005L318.482 250.3C315.986 251.594 305.717 256.71 303.774 256.965C301.627 257.273 308.696 251.954 308.696 251.954Z" fill="#455A64"/>
<path d="M319.099 249.755L318.948 249.848L318.5 250.08L316.847 250.915C315.451 251.606 313.508 252.539 311.337 253.526C309.167 254.512 307.177 255.353 305.734 255.95L304.018 256.64L303.553 256.82C303.499 256.845 303.442 256.863 303.384 256.872L303.541 256.797L304.001 256.594L305.699 255.869C307.137 255.254 309.115 254.396 311.285 253.409C313.455 252.423 315.404 251.507 316.812 250.834L318.477 250.039L318.936 249.825L319.099 249.755Z" fill="#263238"/>
<path d="M306.735 255.654C306.534 255.409 306.305 255.188 306.054 254.993C305.782 254.832 305.491 254.703 305.188 254.61C305.522 254.606 305.849 254.703 306.126 254.89C306.402 255.077 306.615 255.343 306.735 255.654Z" fill="#263238"/>
<path d="M308.836 253.032C308.836 253.032 308.614 252.963 308.382 252.812C308.149 252.661 307.98 252.516 307.998 252.487C308.015 252.458 308.219 252.557 308.452 252.708C308.684 252.858 308.853 253.003 308.836 253.032Z" fill="#263238"/>
<path d="M309.406 252.325C309.406 252.354 309.208 252.325 308.981 252.255C308.754 252.186 308.585 252.099 308.591 252.064C308.738 252.05 308.887 252.074 309.022 252.133C309.243 252.186 309.417 252.267 309.406 252.325Z" fill="#263238"/>
<path d="M309.487 251.211C309.487 251.246 309.295 251.368 309.028 251.495C308.873 251.588 308.7 251.645 308.521 251.663C308.521 251.629 308.713 251.507 308.975 251.379C309.132 251.287 309.306 251.23 309.487 251.211Z" fill="#263238"/>
<path d="M309.371 250.527C309.371 250.527 309.202 250.759 308.9 250.927C308.728 251.043 308.525 251.104 308.318 251.101C308.484 250.989 308.662 250.894 308.847 250.817C309.132 250.66 309.342 250.498 309.371 250.527Z" fill="#263238"/>
<path d="M308.178 252.371C308.001 252.493 307.804 252.583 307.596 252.638C307.368 252.704 307.134 252.753 306.898 252.783C306.755 252.801 306.61 252.801 306.468 252.783C306.378 252.776 306.294 252.735 306.235 252.667C306.208 252.626 306.193 252.577 306.193 252.528C306.193 252.478 306.208 252.43 306.235 252.389C306.412 252.175 306.658 252.029 306.93 251.976C307.203 251.923 307.486 251.967 307.73 252.099C307.874 252.174 308.001 252.279 308.102 252.406C308.172 252.499 308.201 252.557 308.196 252.563C308.052 252.403 307.881 252.271 307.689 252.174C307.484 252.078 307.256 252.044 307.032 252.075C306.899 252.089 306.769 252.129 306.652 252.193C306.534 252.256 306.43 252.343 306.345 252.447C306.281 252.557 306.345 252.65 306.502 252.667C306.636 252.679 306.77 252.679 306.904 252.667C307.136 252.644 307.365 252.603 307.59 252.545C307.922 252.452 308.178 252.354 308.178 252.371Z" fill="#263238"/>
<path d="M308.015 252.47C307.885 252.378 307.794 252.242 307.759 252.087C307.708 251.924 307.696 251.751 307.724 251.582C307.734 251.471 307.773 251.364 307.836 251.272C307.899 251.179 307.985 251.104 308.085 251.054C308.23 251.008 308.568 251.304 308.591 251.414C308.614 251.524 308.422 251.466 308.411 251.559C308.392 251.724 308.353 251.885 308.294 252.041C308.252 252.19 308.172 252.326 308.062 252.435C308.062 252.435 308.132 252.278 308.213 252.017C308.255 251.863 308.284 251.706 308.3 251.547C308.3 251.385 308.3 251.136 308.114 251.176C307.928 251.217 307.876 251.443 307.835 251.606C307.799 251.756 307.799 251.913 307.835 252.064C307.883 252.204 307.943 252.34 308.015 252.47Z" fill="#263238"/>
<path d="M317.761 247.313C317.761 247.313 317.482 247.412 317.086 247.649C316.568 247.958 316.147 248.404 315.87 248.937C315.601 249.476 315.486 250.078 315.538 250.677C315.573 251.141 315.684 251.408 315.66 251.42C315.623 251.362 315.593 251.3 315.573 251.234C315.515 251.057 315.475 250.874 315.451 250.689C315.368 250.071 315.475 249.443 315.759 248.887C316.042 248.332 316.489 247.876 317.039 247.58C317.204 247.489 317.377 247.415 317.557 247.359C317.622 247.334 317.691 247.318 317.761 247.313Z" fill="#263238"/>
<path d="M314.101 251.107C313.281 251.675 312.364 252.092 311.396 252.336C311.396 252.302 312.007 252.07 312.751 251.756C313.496 251.443 314.084 251.078 314.101 251.107Z" fill="#263238"/>
<path d="M315.911 250.277C315.94 250.277 315.911 250.422 315.911 250.59C315.911 250.759 315.911 250.898 315.911 250.909C315.911 250.921 315.794 250.782 315.794 250.59C315.794 250.399 315.882 250.26 315.911 250.277Z" fill="#263238"/>
<path d="M316.207 249.117C316.237 249.117 316.207 249.25 316.173 249.39C316.138 249.529 316.05 249.633 316.021 249.622C315.992 249.61 316.021 249.488 316.056 249.349C316.091 249.21 316.173 249.105 316.207 249.117Z" fill="#263238"/>
<path d="M317.01 248.264C317.01 248.299 316.894 248.351 316.778 248.462C316.661 248.572 316.597 248.688 316.568 248.676C316.539 248.665 316.568 248.502 316.696 248.369C316.824 248.235 317.005 248.264 317.01 248.264Z" fill="#263238"/>
<path d="M317.621 247.789C317.621 247.789 317.621 247.882 317.551 247.945C317.481 248.009 317.418 248.044 317.394 248.021C317.371 247.997 317.394 247.928 317.464 247.864C317.534 247.8 317.598 247.765 317.621 247.789Z" fill="#263238"/>
<path d="M306.177 129.724L304.478 109.016L313.205 109.173C313.205 109.173 313.607 106.116 312.321 99.4218C311.529 95.315 308.789 92.7975 305.711 91.301V91.243L305.444 91.1734C302.91 90.0393 300.204 89.3355 297.437 89.091L286.703 89.2128C286.703 89.2128 278.505 88.1687 273.984 94.0214C272.238 96.2663 266.822 111.632 266.822 111.632L279.709 117.815L278.505 109.294C278.505 109.294 278.749 115.472 279.54 117.415C279.977 118.506 281.286 121.893 281.286 121.893L281.117 132.114L306.177 129.724Z" fill="#2459AD"/>
<path d="M300.254 106.011L298.665 112.775H313.694L312.705 101.429L300.254 106.011Z" fill="#2459AD"/>
<path d="M313.694 112.775C313.037 112.654 312.372 112.588 311.704 112.577C310.47 112.508 308.795 112.444 306.886 112.456C304.978 112.467 303.296 112.548 302.063 112.641C301.396 112.664 300.732 112.746 300.079 112.885C300.745 112.938 301.414 112.938 302.08 112.885C303.308 112.844 304.99 112.798 306.886 112.792C308.783 112.786 310.465 112.792 311.698 112.821C312.364 112.858 313.031 112.843 313.694 112.775Z" fill="#263238"/>
<path d="M299.608 101.377C299.536 101.954 299.52 102.537 299.561 103.117C299.561 104.178 299.608 105.64 299.672 107.258C299.736 108.877 299.811 110.344 299.881 111.4C299.884 111.985 299.946 112.568 300.067 113.14C300.139 112.563 300.154 111.98 300.114 111.4C300.114 110.338 300.067 108.871 300.003 107.253C299.939 105.634 299.864 104.172 299.794 103.111C299.791 102.528 299.729 101.947 299.608 101.377Z" fill="#263238"/>
<g opacity="0.3">
<path opacity="0.3" d="M285.935 107.235C285.935 107.235 289.274 131.928 298.665 131.273C298.665 131.273 302.895 131.226 304.251 128.425V127.323L285.935 107.235Z" fill="black"/>
</g>
<g opacity="0.3">
<path opacity="0.3" d="M299.608 102.833L297.81 114.938L298.974 117.061L300.888 112.908L300.079 112.885L299.608 102.833Z" fill="black"/>
</g>
<path d="M281.234 121.905C281.122 121.724 281.036 121.529 280.978 121.325C280.832 120.948 280.64 120.397 280.396 119.706C279.813 117.908 279.333 116.078 278.959 114.225C278.585 112.371 278.348 110.492 278.249 108.604C278.214 107.879 278.202 107.293 278.214 106.864C278.199 106.654 278.213 106.443 278.255 106.237C278.301 106.237 278.336 107.131 278.458 108.558C278.622 110.429 278.888 112.29 279.255 114.132C279.686 116.29 280.204 118.221 280.599 119.608C280.786 120.252 280.943 120.803 281.071 121.255C281.15 121.464 281.205 121.683 281.234 121.905Z" fill="#263238"/>
<path d="M285.027 128.999C284.946 128.999 284.713 128.494 284.509 127.839C284.334 127.437 284.256 127 284.282 126.563C284.539 126.917 284.716 127.323 284.8 127.752C284.967 128.146 285.045 128.572 285.027 128.999Z" fill="#263238"/>
<path d="M286.325 128.906C285.885 127.742 285.866 126.462 286.272 125.287C286.318 125.889 286.318 126.494 286.272 127.096C286.336 127.697 286.353 128.302 286.325 128.906Z" fill="#263238"/>
<path d="M279.971 118.1C279.93 118.169 276.934 116.754 273.274 114.933C269.614 113.111 266.676 111.568 266.711 111.493C266.746 111.417 269.748 112.839 273.408 114.66C277.068 116.481 280.006 118.024 279.971 118.1Z" fill="#263238"/>
<path d="M285.254 91.2139C285.318 88.2789 285.335 85.193 285.335 85.193C285.335 85.193 281.559 84.4679 280.902 79.5142C280.274 74.7925 282.031 63.7077 282.031 63.7077C287.546 61.6311 293.277 63.5163 297.053 67.9711L296.117 91.794C296.006 94.5609 293.533 96.6723 290.566 96.5331C287.564 96.3881 285.19 94.0098 285.254 91.2139Z" fill="#E8BAA8"/>
<path d="M281.74 72.5651C281.735 72.7278 281.792 72.8862 281.9 73.008C282.008 73.1299 282.159 73.2059 282.322 73.2206C282.404 73.2286 282.487 73.2197 282.567 73.1945C282.646 73.1692 282.719 73.1283 282.781 73.074C282.844 73.0197 282.895 72.9533 282.931 72.8788C282.967 72.8042 282.987 72.7232 282.991 72.6406C282.996 72.4786 282.938 72.3208 282.83 72.1999C282.722 72.079 282.571 72.0042 282.409 71.9909C282.326 71.9784 282.241 71.9838 282.161 72.0069C282.08 72.03 282.005 72.0702 281.942 72.1248C281.878 72.1793 281.827 72.2469 281.793 72.3229C281.758 72.3989 281.74 72.4816 281.74 72.5651Z" fill="#263238"/>
<path d="M281.507 71.7356C281.583 71.8168 282.089 71.4746 282.758 71.4978C283.427 71.521 283.921 71.869 284.003 71.7878C284.084 71.7066 283.968 71.6022 283.753 71.434C283.461 71.2236 283.112 71.1081 282.752 71.1034C282.398 71.0899 282.048 71.1917 281.757 71.3934C281.542 71.55 281.466 71.695 281.507 71.7356Z" fill="#263238"/>
<path d="M288.669 72.9944C288.663 73.1574 288.72 73.3166 288.828 73.4387C288.937 73.5609 289.088 73.6365 289.251 73.6499C289.335 73.6625 289.42 73.6569 289.501 73.6334C289.582 73.61 289.657 73.5693 289.72 73.5141C289.784 73.4589 289.835 73.3906 289.869 73.3139C289.904 73.2372 289.921 73.1539 289.92 73.0698C289.927 72.9074 289.87 72.7489 289.761 72.6277C289.653 72.5065 289.501 72.4321 289.338 72.4202C289.256 72.4076 289.171 72.4131 289.09 72.4362C289.01 72.4593 288.935 72.4995 288.872 72.554C288.808 72.6086 288.757 72.6762 288.722 72.7522C288.687 72.8282 288.669 72.9108 288.669 72.9944Z" fill="#263238"/>
<path d="M288.623 72.1649C288.698 72.2519 289.205 71.9097 289.874 71.9271C290.543 71.9445 291.037 72.2983 291.125 72.2171C291.212 72.1359 291.084 72.0315 290.869 71.8691C290.582 71.6531 290.233 71.5352 289.874 71.5326C289.518 71.522 289.168 71.6235 288.873 71.8227C288.664 71.9793 288.588 72.1243 288.623 72.1649Z" fill="#263238"/>
<path d="M286.016 77.1476C285.659 77.0252 285.287 76.9492 284.911 76.9214C284.736 76.9214 284.573 76.8576 284.55 76.7416C284.536 76.5602 284.581 76.3792 284.678 76.2253L285.225 74.9202C285.734 73.8109 286.152 72.6626 286.476 71.4862C285.88 72.552 285.37 73.6635 284.951 74.81C284.771 75.2682 284.591 75.7091 284.422 76.1267C284.309 76.3339 284.272 76.5739 284.317 76.8054C284.34 76.8683 284.377 76.925 284.426 76.9713C284.474 77.0176 284.533 77.0521 284.597 77.0722C284.693 77.1001 284.793 77.1157 284.893 77.1186C285.265 77.1756 285.642 77.1854 286.016 77.1476Z" fill="#263238"/>
<path d="M285.335 85.193C287.663 85.2859 289.971 84.7338 292.003 83.5979C292.003 83.5979 290.31 86.9448 285.37 86.3589L285.335 85.193Z" fill="#A36957"/>
<path d="M290.811 70.1869C290.671 70.4015 290.147 70.3087 289.565 70.1869C288.984 70.0651 288.472 69.9665 288.402 69.7171C288.332 69.4676 288.943 69.137 289.722 69.2936C290.502 69.4502 290.95 70.0013 290.811 70.1869Z" fill="#263238"/>
<path d="M284.02 69.2008C283.968 69.4503 283.41 69.5431 282.769 69.5721C282.129 69.6011 281.565 69.5721 281.489 69.3169C281.414 69.0616 281.955 68.702 282.729 68.6672C283.503 68.6324 284.073 68.963 284.02 69.2008Z" fill="#263238"/>
<path d="M286.028 78.7776C285.954 78.7602 285.877 78.7679 285.809 78.7995C285.74 78.831 285.684 78.8846 285.65 78.9516C285.617 79.0107 285.6 79.0775 285.6 79.1452C285.601 79.213 285.619 79.2794 285.654 79.3378C285.688 79.3962 285.737 79.4446 285.796 79.4783C285.855 79.512 285.922 79.5297 285.99 79.5297C286.058 79.5297 286.125 79.512 286.184 79.4783C286.243 79.4446 286.292 79.3962 286.326 79.3378C286.361 79.2794 286.379 79.213 286.38 79.1452C286.381 79.0775 286.363 79.0107 286.33 78.9516C286.289 78.8737 286.222 78.8123 286.14 78.7775C286.059 78.7427 285.968 78.7366 285.882 78.7602" fill="#A36957"/>
<path d="M286.185 78.8471C286.185 78.8181 286.074 78.6499 285.778 78.7137C285.689 78.7368 285.608 78.7827 285.542 78.8468C285.477 78.911 285.43 78.9911 285.405 79.0792C285.374 79.1902 285.377 79.308 285.413 79.4176C285.449 79.5271 285.517 79.6233 285.609 79.694C285.706 79.7601 285.82 79.7955 285.938 79.7955C286.055 79.7955 286.17 79.7601 286.266 79.694C286.344 79.6421 286.405 79.5691 286.442 79.4838C286.479 79.3985 286.491 79.3044 286.476 79.2126C286.418 78.9052 286.191 78.8588 286.179 78.8994C286.167 78.94 286.261 79.0444 286.243 79.2242C286.239 79.2686 286.224 79.3114 286.2 79.3488C286.176 79.3863 286.143 79.4171 286.103 79.4388C286.058 79.4648 286.007 79.4784 285.955 79.4784C285.903 79.4784 285.852 79.4648 285.807 79.4388C285.766 79.4045 285.735 79.3602 285.717 79.3104C285.698 79.2606 285.693 79.2069 285.702 79.1546C285.709 79.1088 285.726 79.0652 285.754 79.0278C285.781 78.9904 285.817 78.9603 285.859 78.94C286.022 78.8413 286.167 78.8877 286.185 78.8471Z" fill="#263238"/>
<path d="M294.796 73.7891C294.214 75.1464 292.771 76.1963 292.969 77.6639C293.097 78.6094 293.708 79.491 293.592 80.4423C293.44 81.6024 292.201 82.4609 292.021 83.6501C291.805 85.106 293.231 86.2371 293.795 87.5944C294.627 89.5782 293.568 91.8056 293.539 93.9751C293.574 95.6221 294.206 97.201 295.318 98.419C296.431 99.637 297.949 100.412 299.59 100.599C300.917 100.71 302.412 100.309 303.081 99.1724C303.663 98.2327 303.535 97.0378 303.873 95.9995C304.385 94.4449 305.868 93.308 306.2 91.707C306.782 88.8068 303.233 86.3705 303.465 83.4006C303.564 82.1303 304.35 81.0282 304.681 79.7985C304.892 78.9903 304.909 78.1438 304.729 77.3282C304.549 76.5125 304.178 75.751 303.646 75.1058C302.767 74.0675 301.499 73.3656 300.736 72.2519C299.893 70.97 299.864 69.3516 299.573 67.8377C299.182 65.9975 298.33 64.2861 297.096 62.8635C295.862 61.4408 294.286 60.3534 292.515 59.7027C290.745 59.0521 288.838 58.8595 286.973 59.1429C285.108 59.4264 283.346 60.1767 281.85 61.3237C281.85 61.3237 281.007 65.1462 284.946 65.7901C288.885 66.434 290.706 65.6915 291.148 67.2634C291.044 67.911 291.095 68.574 291.297 69.1981C291.499 69.8222 291.847 70.3896 292.312 70.854C293.917 72.5826 295.448 72.2113 294.796 73.7891Z" fill="#263238"/>
<path d="M301.051 100.304C300.929 100.308 300.808 100.296 300.69 100.269C300.349 100.208 300.014 100.117 299.689 99.9961C298.488 99.5369 297.434 98.761 296.64 97.7513C296.084 97.0545 295.647 96.2704 295.349 95.431C295.009 94.475 294.83 93.4696 294.819 92.4553C294.807 91.3374 294.948 90.2231 295.238 89.1432C295.397 88.5729 295.591 88.013 295.82 87.4668C296.06 86.9233 296.272 86.3676 296.454 85.8021C296.614 85.2448 296.614 84.654 296.454 84.0967C296.284 83.5481 296.064 83.0161 295.797 82.5074C295.527 82.0028 295.299 81.4771 295.116 80.9354C294.937 80.3993 294.895 79.827 294.994 79.2706C295.227 78.1801 295.89 77.3681 296.285 76.5386C296.662 75.7707 296.842 74.9217 296.809 74.0675C296.756 72.8175 296.301 71.6176 295.512 70.6452C295.206 70.3046 294.877 69.9848 294.528 69.6881C294.936 69.9166 295.301 70.2151 295.605 70.5698C296.452 71.5408 296.952 72.7651 297.024 74.0501C297.072 74.9415 296.896 75.8308 296.512 76.6372C296.111 77.4957 295.465 78.3135 295.267 79.3112C295.069 80.3089 295.541 81.3588 296.059 82.3681C296.341 82.8915 296.571 83.4413 296.745 84.0097C296.917 84.6166 296.917 85.259 296.745 85.8659C296.551 86.4511 296.328 87.0261 296.076 87.5887C295.847 88.1229 295.653 88.6712 295.494 89.2302C295.205 90.2828 295.062 91.3699 295.069 92.4611C295.051 94.3196 295.653 96.1314 296.78 97.612C297.534 98.6092 298.537 99.3913 299.689 99.8801C300.556 100.217 301.056 100.269 301.051 100.304Z" fill="#455A64"/>
<path d="M300.469 71.0337C300.185 71.1069 299.895 71.1497 299.602 71.1614C298.804 71.2465 297.997 71.225 297.205 71.0975C296.604 71.0088 296.027 70.8016 295.507 70.4878C294.988 70.1741 294.536 69.7602 294.179 69.2704C293.847 68.6507 293.581 67.9973 293.388 67.3214C293.14 66.6462 292.673 66.0727 292.061 65.6914C290.787 64.8851 289.292 64.7865 287.989 64.6299C286.786 64.5702 285.619 64.2069 284.596 63.5742C283.911 63.1217 283.417 62.4345 283.206 61.6426C283.155 61.428 283.141 61.2064 283.165 60.9872C283.165 60.8363 283.2 60.7609 283.212 60.7609C283.219 61.0482 283.256 61.334 283.322 61.6136C283.563 62.354 284.057 62.9864 284.719 63.4002C285.723 63.9841 286.856 64.311 288.018 64.3515C289.321 64.5023 290.869 64.5777 292.23 65.4362C292.896 65.8533 293.404 66.4799 293.673 67.217C293.855 67.8757 294.107 68.5135 294.424 69.1196C295.101 70.0464 296.116 70.6712 297.251 70.8597C298.018 71.0019 298.799 71.0544 299.579 71.0163C299.875 70.9997 300.173 71.0055 300.469 71.0337Z" fill="#455A64"/>
<path d="M299.026 66.3121C298.807 66.3852 298.576 66.4186 298.345 66.4107C297.261 66.418 296.216 66.0016 295.436 65.2506C295.08 64.8948 294.777 64.4906 294.534 64.0499C294.011 63.1682 293.504 62.0835 292.416 61.6311C291.368 61.2805 290.251 61.183 289.158 61.3468C288.236 61.476 287.299 61.476 286.377 61.3468C285.735 61.2581 285.131 60.9929 284.631 60.5812C284.502 60.469 284.389 60.3403 284.294 60.1983C284.224 60.0978 284.195 60.0456 284.207 60.0417C284.207 60.0417 284.37 60.2273 284.707 60.4883C285.205 60.8411 285.783 61.0644 286.389 61.138C287.294 61.2398 288.21 61.2242 289.112 61.0916C290.253 60.9058 291.422 61.0055 292.515 61.3816C293.077 61.6333 293.558 62.0348 293.906 62.5417C294.213 62.9939 294.494 63.4626 294.75 63.9455C294.979 64.3671 295.263 64.7571 295.593 65.1056C295.885 65.4003 296.221 65.6488 296.588 65.8423C297.129 66.124 297.724 66.2881 298.334 66.3237C298.782 66.3179 299.02 66.2831 299.026 66.3121Z" fill="#455A64"/>
<path d="M302.784 99.0505C302.755 99.0505 302.942 98.6677 303.157 97.9484C303.448 96.9387 303.578 95.8894 303.541 94.8393C303.499 93.285 303.073 91.7649 302.302 90.4135C301.877 89.6536 301.231 88.9749 300.702 88.1397C300.421 87.7141 300.224 87.2399 300.12 86.7417C300.028 86.2173 300.072 85.6782 300.248 85.1756C300.574 84.1721 301.155 83.331 301.283 82.4087C301.411 81.4864 300.969 80.6685 300.527 79.897C300.299 79.5216 300.091 79.1344 299.904 78.7369C299.734 78.3515 299.622 77.9429 299.573 77.5246C299.518 76.7875 299.541 76.0468 299.643 75.3146C299.829 74.2796 299.732 73.2138 299.363 72.2287C299.199 71.8836 298.965 71.5757 298.677 71.3238C298.677 71.3238 298.706 71.3238 298.747 71.3586C298.815 71.3927 298.878 71.4378 298.933 71.492C299.16 71.681 299.345 71.9164 299.474 72.1823C299.895 73.1758 300.026 74.2675 299.852 75.332C299.772 76.0505 299.762 76.7752 299.823 77.4956C299.966 78.306 300.288 79.0747 300.766 79.7462C301.014 80.1382 301.226 80.5517 301.4 80.9817C301.583 81.4459 301.643 81.9494 301.574 82.4435C301.435 83.4586 300.835 84.3171 300.533 85.2626C300.374 85.7188 300.332 86.2072 300.411 86.6837C300.512 87.1446 300.698 87.583 300.958 87.9772C301.452 88.7835 302.121 89.4738 302.546 90.2685C303.325 91.6655 303.741 93.235 303.756 94.8335C303.775 95.9035 303.609 96.9688 303.267 97.9832C303.174 98.2578 303.061 98.5253 302.93 98.7837C302.894 98.8791 302.845 98.969 302.784 99.0505Z" fill="#455A64"/>
<path d="M279.087 207.133C279.087 207.133 275.165 170.102 274.938 156.418C274.711 142.735 281.111 129.231 281.111 129.231L306.177 128.193C306.177 128.193 311.134 142.073 311.221 147.915C311.396 159.249 308.201 170.438 308.568 179.429L309.406 207.156" fill="#263238"/>
<path d="M310.249 161.604C310.119 161.717 309.981 161.822 309.836 161.917L309.609 162.074L309.365 162.312C309.15 162.497 308.955 162.705 308.783 162.932C307.975 163.918 307.387 165.687 306.822 167.886C306.534 169.105 306.109 170.288 305.554 171.413C305.385 171.721 305.191 172.014 304.972 172.289C304.868 172.428 304.769 172.579 304.646 172.712L304.262 173.095C303.712 173.607 303.074 174.016 302.377 174.301C300.975 174.916 299.387 175.206 297.944 175.931C296.465 176.724 295.323 178.022 294.726 179.586C294.016 181.158 293.563 182.805 292.981 184.348C292.399 185.891 291.613 187.364 290.363 188.304C289.166 189.133 287.746 189.58 286.29 189.586C284.94 189.667 283.689 189.626 282.566 189.795C281.555 189.899 280.589 190.263 279.762 190.85C279.157 191.321 278.704 191.959 278.458 192.683C278.302 193.14 278.268 193.63 278.359 194.104C278.429 194.429 278.516 194.586 278.499 194.592C278.405 194.446 278.338 194.285 278.301 194.116C278.178 193.632 278.194 193.124 278.348 192.648C278.579 191.888 279.035 191.215 279.657 190.717C280.505 190.079 281.51 189.678 282.566 189.557C283.73 189.371 284.969 189.394 286.301 189.307C287.715 189.298 289.093 188.861 290.252 188.054C291.428 187.03 292.296 185.701 292.76 184.214C293.341 182.689 293.766 181.036 294.505 179.435C295.131 177.806 296.325 176.457 297.868 175.635C299.369 174.893 300.958 174.609 302.325 174.017C302.994 173.741 303.609 173.348 304.14 172.857L304.507 172.492C304.623 172.364 304.722 172.219 304.827 172.085C305.032 171.822 305.213 171.54 305.368 171.244C305.925 170.136 306.357 168.968 306.654 167.764C307.236 165.571 307.87 163.779 308.725 162.787C308.895 162.561 309.091 162.355 309.307 162.172C309.4 162.091 309.481 162.01 309.563 161.946L309.801 161.795C309.947 161.723 310.096 161.659 310.249 161.604Z" fill="#FAFAFA"/>
<path d="M310.401 144.469C310.427 144.632 310.439 144.797 310.436 144.962C310.434 145.441 310.375 145.918 310.261 146.383C309.76 148.08 308.776 149.595 307.428 150.745C306.538 151.561 305.562 152.278 304.518 152.886C303.395 153.547 302.156 154.179 300.882 154.898C299.544 155.614 298.297 156.488 297.17 157.503C296.014 158.647 295.061 159.979 294.354 161.441C293.64 162.924 292.826 164.356 291.916 165.728C291.453 166.367 290.919 166.951 290.322 167.468C289.733 167.967 289.087 168.394 288.396 168.739C287.146 169.351 285.843 169.85 284.503 170.229C283.258 170.612 282.095 170.954 281.082 171.389C280.163 171.754 279.289 172.221 278.476 172.782C277.864 173.205 277.314 173.71 276.841 174.284C276.445 174.781 276.114 175.327 275.857 175.908C275.899 175.747 275.953 175.59 276.02 175.438C276.211 175 276.455 174.587 276.748 174.208C277.212 173.611 277.761 173.083 278.377 172.642C279.194 172.062 280.074 171.575 281.001 171.192C282.122 170.737 283.266 170.34 284.428 170.003C285.748 169.615 287.033 169.114 288.268 168.507C288.923 168.166 289.538 167.753 290.101 167.277C290.675 166.767 291.19 166.195 291.637 165.571C292.534 164.206 293.341 162.784 294.051 161.314C294.781 159.818 295.766 158.46 296.96 157.3C298.108 156.27 299.378 155.386 300.742 154.666C302.022 153.953 303.262 153.332 304.385 152.677C305.426 152.09 306.401 151.394 307.294 150.6C308.631 149.485 309.623 148.015 310.156 146.36C310.306 145.74 310.388 145.106 310.401 144.469Z" fill="#FAFAFA"/>
<path d="M275.066 158.356C275.043 158.32 275.025 158.281 275.014 158.24C274.97 158.128 274.933 158.014 274.903 157.897C274.804 157.436 274.824 156.957 274.961 156.505C275.287 155.345 276.573 153.854 278.644 153.118C279.68 152.764 280.85 152.538 282.071 152.236C283.086 152.068 284.046 151.661 284.871 151.049C285.696 150.436 286.362 149.636 286.813 148.715C287.144 148.039 287.434 147.344 287.68 146.633C288.135 145.089 288.753 143.597 289.525 142.184C290.408 140.794 291.75 139.754 293.318 139.243C294.745 138.781 296.201 138.413 297.676 138.141C298.992 137.889 300.267 137.455 301.464 136.853C302.477 136.276 303.351 135.484 304.024 134.533C305.017 133.16 305.584 131.526 305.653 129.834C305.656 129.213 305.615 128.593 305.531 127.978C305.707 128.581 305.787 129.207 305.769 129.834C305.747 131.562 305.199 133.243 304.198 134.654C303.517 135.637 302.625 136.455 301.586 137.05C300.374 137.675 299.079 138.126 297.74 138.39C296.279 138.667 294.837 139.037 293.423 139.498C291.917 139.99 290.629 140.988 289.781 142.323C289.022 143.717 288.411 145.187 287.96 146.708C287.708 147.432 287.411 148.139 287.069 148.825C286.725 149.485 286.286 150.09 285.766 150.623C284.744 151.552 283.486 152.184 282.13 152.451C280.896 152.764 279.732 152.961 278.714 153.297C276.695 153.982 275.415 155.391 275.072 156.517C274.931 156.951 274.893 157.411 274.961 157.863C275.011 158.024 275.046 158.189 275.066 158.356Z" fill="#FAFAFA"/>
<path d="M308.248 189.679C308.272 189.799 308.285 189.921 308.289 190.044C308.3 190.396 308.263 190.747 308.178 191.088C307.813 192.346 307.039 193.448 305.979 194.221C305.271 194.783 304.488 195.244 303.651 195.589C302.761 195.966 301.778 196.268 300.742 196.587C299.667 196.9 298.615 197.288 297.595 197.747C296.534 198.252 295.583 198.96 294.796 199.83C293.947 200.711 293.213 201.68 292.399 202.539C291.62 203.37 290.715 204.075 289.717 204.627C288.018 205.551 286.118 206.045 284.183 206.065C282.888 206.079 281.599 205.865 280.378 205.433C280.047 205.319 279.724 205.182 279.412 205.021C279.299 204.974 279.191 204.914 279.092 204.841C279.211 204.87 279.326 204.911 279.436 204.963C279.755 205.099 280.081 205.219 280.413 205.323C281.632 205.704 282.906 205.882 284.183 205.851C286.075 205.802 287.928 205.298 289.583 204.383C290.55 203.837 291.427 203.147 292.184 202.336C292.981 201.489 293.708 200.526 294.575 199.621C295.409 198.718 296.413 197.989 297.531 197.475C298.567 197.013 299.634 196.626 300.725 196.315C301.749 196.001 302.726 195.734 303.634 195.352C304.446 195.02 305.209 194.581 305.903 194.047C306.946 193.312 307.723 192.263 308.12 191.053C308.206 190.6 308.249 190.14 308.248 189.679Z" fill="#FAFAFA"/>
<path d="M305.391 112.798L300.539 112.914C300.352 113.889 299.981 114.82 299.445 115.658C295.372 108.639 292.248 99.2419 291.468 95.4657C291.584 95.0887 291.718 94.6711 291.887 94.207C292.008 93.5022 291.986 92.7803 291.823 92.084C291.683 91.2429 291.45 90.1118 291.381 89.5898C291.165 87.9888 290.904 87.7394 290.345 87.9192C289.589 88.1686 290.659 92.403 290.037 92.4959C289.699 92.5423 289.292 91.0921 289.175 89.903C289.059 88.7139 288.512 85.0479 288.122 84.8043C287.541 84.4447 287.034 85.0131 287.186 86.1964C287.337 87.3798 287.517 90.9761 286.889 91.0283C286.261 91.0805 285.725 85.0015 285.725 85.0015C285.725 85.0015 285.824 83.679 285.091 83.708C283.776 83.766 284.806 90.1698 284.917 90.7789C284.998 91.1965 284.335 91.2777 284.253 90.8195C284.172 90.3612 283.869 84.7463 282.508 84.7927C281.472 84.7927 283.305 90.0654 282.723 91.2835C282.141 92.5017 281.746 87.1535 280.762 87.2231C280.396 87.2521 280.122 87.3217 280.797 90.3438C281.444 92.745 282.22 95.1093 283.124 97.4263C284.684 105.808 291.526 132.624 302.249 127.717C308.254 124.967 310.686 112.798 310.686 112.798H305.391Z" fill="#E8BAA8"/>
<path d="M284.707 91.185C284.753 91.1966 284.801 91.1966 284.847 91.185C284.917 91.1636 284.977 91.118 285.017 91.0564C285.056 90.9947 285.072 90.921 285.062 90.8486C285.062 90.4889 284.992 89.9669 284.911 89.2882C284.774 88.4703 284.685 87.6453 284.643 86.8172C284.643 86.3299 284.643 85.8079 284.672 85.2568C284.681 84.9767 284.71 84.6975 284.759 84.4215C284.806 84.1605 284.98 83.8415 285.184 83.8937H285.219C285.423 83.8937 285.586 84.0445 285.65 84.2881C285.722 84.5406 285.749 84.8036 285.731 85.0654C285.851 86.6899 286.059 88.3067 286.354 89.9089C286.4 90.1235 286.447 90.3439 286.517 90.5644C286.547 90.6772 286.586 90.7876 286.633 90.895C286.663 90.9547 286.696 91.0128 286.732 91.069C286.758 91.1114 286.794 91.1471 286.836 91.1733C286.878 91.1995 286.926 91.2154 286.976 91.2198C287.061 91.2105 287.141 91.1763 287.206 91.1216C287.272 91.0669 287.319 90.9941 287.343 90.9124C287.393 90.7989 287.43 90.6802 287.453 90.5586C287.499 90.3247 287.53 90.0884 287.546 89.8509C287.599 88.8843 287.586 87.9153 287.506 86.9506C287.432 86.4689 287.413 85.9806 287.447 85.4947C287.469 85.2847 287.571 85.0913 287.733 84.9552C287.77 84.9331 287.811 84.9191 287.855 84.9141C287.898 84.9091 287.941 84.9132 287.983 84.9262C288.032 84.938 288.079 84.9576 288.122 84.9842C288.152 85.0062 288.174 85.0365 288.186 85.0712C288.37 85.5416 288.504 86.0295 288.588 86.5272C288.693 87.0376 288.78 87.5655 288.861 88.0933C288.943 88.6212 289.018 89.1548 289.082 89.6943C289.132 90.2509 289.222 90.8034 289.35 91.3474C289.419 91.6256 289.506 91.8989 289.612 92.1653C289.671 92.3145 289.754 92.4534 289.856 92.5772C289.896 92.6286 289.949 92.6678 290.009 92.6904C290.07 92.713 290.136 92.718 290.199 92.7048C290.258 92.6854 290.311 92.6512 290.353 92.6055C290.395 92.5597 290.424 92.504 290.438 92.4437C290.507 92.1473 290.528 91.842 290.502 91.5388C290.502 91.2488 290.467 90.9588 290.438 90.6804C290.397 90.1931 290.351 89.7117 290.333 89.236C290.319 89.0023 290.319 88.7679 290.333 88.5342C290.345 88.4307 290.37 88.3292 290.409 88.2325C290.421 88.2006 290.439 88.1712 290.461 88.1455H290.537C290.921 87.9889 291.049 88.5226 291.154 88.9518C291.258 89.381 291.299 89.8683 291.392 90.3265C291.544 91.2372 291.741 92.1479 291.84 93.018C291.908 93.4346 291.892 93.8604 291.794 94.2709C291.654 94.6886 291.514 95.1004 291.381 95.5122V95.5528V95.5876C292.062 98.4373 292.931 101.239 293.981 103.975C294.901 106.452 295.826 108.616 296.635 110.356C297.443 112.096 298.176 113.459 298.677 114.376L299.259 115.414C299.322 115.538 299.398 115.654 299.486 115.762C299.437 115.633 299.376 115.509 299.305 115.391L298.723 114.329C298.246 113.395 297.56 112.009 296.768 110.269C295.977 108.529 295.081 106.365 294.185 103.888C293.16 101.156 292.309 98.3627 291.637 95.5238V95.6051C291.77 95.199 291.904 94.7872 292.044 94.3753C292.165 93.9233 292.189 93.4508 292.114 92.989C292.009 92.0783 291.817 91.1966 291.666 90.2801C291.578 89.8277 291.52 89.3636 291.427 88.888C291.421 88.6436 291.38 88.4014 291.305 88.1687C291.239 88.0272 291.126 87.9126 290.985 87.8439C290.836 87.7952 290.675 87.7952 290.525 87.8439H290.432C290.383 87.8596 290.337 87.8853 290.298 87.9193C290.234 87.9739 290.184 88.0437 290.153 88.1223C290.1 88.2479 290.066 88.3809 290.054 88.5168C290.037 88.7678 290.037 89.0198 290.054 89.2708C290.054 89.7581 290.124 90.2453 290.165 90.7326C290.165 91.0168 290.211 91.3126 290.223 91.5737C290.246 91.8353 290.232 92.0989 290.182 92.3567C290.182 92.4147 290.136 92.4031 290.182 92.4321L290.147 92.3973C290.073 92.3026 290.014 92.1969 289.973 92.0841C289.871 91.8332 289.787 91.5754 289.722 91.3126C289.595 90.7844 289.507 90.2473 289.461 89.7059C289.399 89.1606 289.323 88.6212 289.234 88.0875C289.152 87.5539 289.059 87.0318 288.954 86.5098C288.867 85.9784 288.718 85.4588 288.512 84.961C288.472 84.8779 288.41 84.8075 288.332 84.758C288.264 84.7188 288.192 84.6876 288.117 84.6652C288.034 84.6435 287.947 84.6384 287.862 84.6504C287.777 84.6623 287.696 84.691 287.622 84.7348C287.502 84.8242 287.402 84.9373 287.328 85.067C287.254 85.1968 287.207 85.3404 287.191 85.4889C287.154 85.7524 287.154 86.02 287.191 86.2835C287.191 86.533 287.25 86.7766 287.267 87.0202C287.348 87.9693 287.366 88.9227 287.319 89.8741C287.306 90.1001 287.277 90.3249 287.232 90.547C287.215 90.6507 287.186 90.7519 287.145 90.8486C287.13 90.8868 287.108 90.9222 287.081 90.953C287.081 91.0052 287.04 90.953 287.046 91.0226C287.046 90.9646 287.046 91.0226 287.046 90.9472C287.02 90.908 286.997 90.8674 286.976 90.8254C286.935 90.7326 286.901 90.6282 286.866 90.5296C286.802 90.3207 286.755 90.1061 286.709 89.8973C286.405 88.3089 286.186 86.7058 286.051 85.0944C286.069 84.8028 286.035 84.5103 285.952 84.2301C285.914 84.084 285.835 83.9514 285.725 83.8473C285.668 83.7924 285.601 83.7498 285.527 83.7218C285.453 83.6939 285.374 83.6813 285.295 83.6849H285.33C285.231 83.6705 285.131 83.6854 285.041 83.7277C284.951 83.77 284.875 83.8378 284.823 83.9227C284.737 84.0611 284.678 84.2146 284.649 84.3751C284.6 84.6627 284.573 84.9536 284.567 85.2452C284.567 85.8253 284.567 86.3299 284.567 86.823C284.623 87.6563 284.729 88.4855 284.887 89.3056C284.986 89.9785 285.062 90.5006 285.097 90.8544C285.108 90.9164 285.097 90.9802 285.067 91.0352C285.036 91.0902 284.987 91.1329 284.928 91.156C284.754 91.1734 284.701 91.1792 284.707 91.185Z" fill="#A36957"/>
<path d="M246.812 120.785C245.677 120.761 244.544 120.892 243.444 121.174C240.436 121.963 235.252 125.095 235.036 128.964H238.806C238.806 128.964 236.694 133.442 237.311 133.025C238.923 131.946 242.123 128.703 242.123 128.703L246.812 120.785Z" fill="#E8BAA8"/>
<path d="M298.206 53.3653C298.118 53.3653 297.781 50.2678 297.443 46.4046C297.106 42.5414 296.896 39.4439 296.978 39.4439C297.059 39.4439 297.403 42.5414 297.74 46.4046C298.078 50.2678 298.287 53.3653 298.206 53.3653Z" fill="#263238"/>
<path d="M314.735 39.6817C314.799 39.7281 312.257 43.4114 309.051 47.9069C305.845 52.4023 303.186 56.0277 303.116 55.9581C303.046 55.8885 305.595 52.2283 308.801 47.7329C312.007 43.2374 314.666 39.6353 314.735 39.6817Z" fill="#263238"/>
<path d="M321.601 56.3758C321.601 56.457 318.645 57.1357 314.968 57.8897C311.291 58.6438 308.289 59.1891 308.271 59.1079C308.254 59.0267 311.221 58.348 314.904 57.5939C318.587 56.8398 321.56 56.2946 321.601 56.3758Z" fill="#263238"/>
<path d="M123.738 136.047L103.141 241.501L100.465 255.306L237.777 254.645C243.944 254.616 249.413 249.158 251.386 241.048L275.741 141.493C277.248 135.339 273.943 128.935 269.265 128.941L130.254 129.086C127.229 129.08 124.517 131.934 123.738 136.047Z" fill="#2459AD"/>
<g opacity="0.5">
<path opacity="0.5" d="M123.738 136.047L103.141 241.501L100.465 255.306L237.777 254.645C243.944 254.616 249.413 249.158 251.386 241.048L275.741 141.493C277.248 135.339 273.943 128.935 269.265 128.941L130.254 129.086C127.229 129.08 124.517 131.934 123.738 136.047Z" fill="black"/>
</g>
<path d="M224.621 234.343L210.076 117.514C209.494 112.728 205.66 109.155 201.139 109.173L169.254 109.271C168.07 109.284 166.9 109.538 165.816 110.017C164.733 110.496 163.759 111.189 162.953 112.055L147.826 128.106L59.1547 128.581C53.7378 128.61 49.5719 133.726 50.2876 139.469L63.7919 247.447C64.3737 252.226 68.208 255.794 72.7171 255.788L227.28 255.48C244.491 255.834 246.137 250.77 246.137 250.77C226.379 255.126 224.621 234.372 224.621 234.343Z" fill="#2459AD"/>
<g opacity="0.5">
<path d="M157.973 210.978L152.76 216.558L112.613 180.548L117.826 174.968L157.973 210.978Z" fill="#D3DEEF"/>
<path d="M150.578 173.733L156.338 178.901L120.008 217.794L114.248 212.626L150.578 173.733Z" fill="#D3DEEF"/>
</g>
<path d="M246.69 60.1983C246.502 60.1191 246.34 59.9882 246.224 59.8208C246.107 59.6534 246.041 59.4563 246.033 59.2528L245.8 53.8699C245.792 53.7026 245.823 53.5357 245.89 53.3825C245.958 53.2292 246.061 53.0937 246.19 52.9868C246.319 52.8799 246.472 52.8044 246.635 52.7664C246.799 52.7284 246.969 52.7288 247.132 52.7677C247.583 52.8646 248.049 52.8688 248.501 52.7801C248.953 52.6913 249.382 52.5114 249.762 52.2515C250.112 52.0307 250.413 51.7407 250.646 51.3995C250.879 51.0583 251.04 50.6732 251.118 50.2677C251.171 49.8572 251.14 49.4403 251.028 49.0417C250.916 48.6431 250.725 48.271 250.466 47.9475C250.194 47.5793 249.851 47.2684 249.457 47.0325C249.064 46.7966 248.628 46.6404 248.174 46.5727C247.258 46.522 246.352 46.7807 245.603 47.3071C244.853 47.8334 244.303 48.5966 244.043 49.473C243.956 49.7386 243.77 49.9605 243.523 50.0925C243.276 50.2245 242.987 50.2565 242.717 50.1817C242.447 50.1069 242.217 49.9312 242.073 49.6912C241.93 49.4511 241.885 49.1652 241.948 48.893C242.344 47.5144 243.204 46.3138 244.383 45.493C245.563 44.6722 246.99 44.2812 248.424 44.3859C249.171 44.4851 249.89 44.7329 250.538 45.1145C251.187 45.4961 251.752 46.0039 252.2 46.6075C252.636 47.167 252.955 47.808 253.138 48.4925C253.321 49.177 253.364 49.8911 253.265 50.5925C253.133 51.293 252.858 51.959 252.458 52.5496C252.057 53.1402 251.54 53.6428 250.938 54.0265C250.065 54.6124 249.045 54.9438 247.994 54.9836L248.174 59.1368C248.181 59.3192 248.141 59.5005 248.059 59.6636C247.977 59.8268 247.855 59.9666 247.704 60.0702C247.553 60.1737 247.378 60.2376 247.196 60.256C247.014 60.2743 246.83 60.2465 246.661 60.1751L246.69 60.1983Z" fill="#FF0000"/>
<path d="M248.284 62.4026C248.297 62.5777 248.257 62.7526 248.169 62.905C248.082 63.0574 247.951 63.1806 247.793 63.2588C247.635 63.3371 247.458 63.3669 247.283 63.3446C247.109 63.3223 246.945 63.2489 246.812 63.1335C246.679 63.0182 246.583 62.8661 246.537 62.6967C246.491 62.5272 246.497 62.3479 246.553 62.1815C246.609 62.015 246.713 61.8689 246.853 61.7617C246.992 61.6544 247.16 61.5908 247.336 61.5789C247.453 61.5702 247.57 61.5847 247.681 61.6215C247.792 61.6583 247.895 61.7167 247.983 61.7933C248.071 61.8699 248.143 61.9632 248.195 62.0678C248.247 62.1724 248.277 62.2862 248.284 62.4026Z" fill="#FF0000"/>
<path d="M227.996 52.6054C228.021 52.4906 228.038 52.3744 228.048 52.2573C228.048 52.0021 228.112 51.6773 228.159 51.219C228.216 50.6564 228.311 50.0983 228.444 49.5485C228.52 49.2236 228.56 48.864 228.677 48.4986C228.793 48.1331 228.909 47.7387 229.037 47.3385C229.711 45.3554 230.693 43.4901 231.947 41.8105C233.59 39.6357 235.673 37.8294 238.062 36.5088C239.421 35.7447 240.869 35.1486 242.373 34.7338C243.996 34.3048 245.668 34.0865 247.348 34.0842C248.232 34.07 249.117 34.1165 249.995 34.2234C250.443 34.2698 250.885 34.3858 251.333 34.4612C251.786 34.5386 252.233 34.6471 252.671 34.786C254.505 35.297 256.25 36.0853 257.844 37.1237C261.388 39.4156 264.088 42.7955 265.536 46.7526C266.315 48.8723 266.709 51.1135 266.699 53.371C266.723 55.6967 266.311 58.0064 265.483 60.1809L265.222 60.8422L265.187 60.9292L265.222 61.0162C266.682 64.3631 268.131 67.652 269.498 70.8366L269.742 70.5581L261.015 67.2228L260.91 67.1822L260.823 67.2634C258.514 69.4936 255.688 71.1197 252.596 71.9967C249.954 72.7218 247.188 72.8801 244.48 72.4612C241.772 72.0422 239.184 71.0555 236.886 69.5662C235.005 68.3361 233.346 66.7964 231.982 65.0128C230.004 62.4094 228.722 59.3475 228.258 56.1147C228.188 55.5347 228.13 55.0474 228.077 54.6066C228.025 54.1657 228.077 53.8061 228.048 53.4987C228.019 53.1912 228.048 52.9882 228.048 52.82C228.077 52.8156 228.104 52.8004 228.122 52.7776C228.14 52.7547 228.149 52.7257 228.147 52.6966C228.145 52.6674 228.132 52.6401 228.11 52.6202C228.089 52.6003 228.06 52.5893 228.031 52.5893C228.002 52.5893 227.973 52.6003 227.952 52.6202C227.93 52.6401 227.917 52.6674 227.915 52.6966C227.913 52.7257 227.922 52.7547 227.94 52.7776C227.958 52.8004 227.984 52.8156 228.013 52.82C228.013 52.9882 228.013 53.2144 228.013 53.4987C228.013 53.7829 228.013 54.1773 228.013 54.6182C228.013 55.059 228.112 55.5637 228.171 56.1379C228.362 57.5331 228.695 58.9052 229.165 60.2331C229.832 61.9867 230.728 63.6446 231.83 65.1636C233.2 66.979 234.871 68.5483 236.77 69.8041C239.096 71.3306 241.72 72.3466 244.47 72.7846C247.219 73.2226 250.031 73.0727 252.718 72.3447C255.847 71.4587 258.709 69.817 261.05 67.565L260.858 67.6056L269.585 70.9584L270.022 71.1266L269.83 70.6799C268.445 67.4954 267.014 64.2123 265.559 60.8596V61.0278L265.827 60.3491C266.676 58.1272 267.098 55.766 267.072 53.3884C267.09 51.0829 266.696 48.7926 265.908 46.625C264.43 42.589 261.67 39.1449 258.048 36.8162C256.413 35.7537 254.623 34.9513 252.741 34.438C252.296 34.2975 251.841 34.1909 251.38 34.119C250.926 34.0378 250.478 33.9217 250.024 33.8811C249.134 33.771 248.238 33.7206 247.342 33.7303C245.636 33.7375 243.938 33.9676 242.292 34.4148C240.768 34.8463 239.301 35.4577 237.922 36.2362C235.51 37.5892 233.413 39.4379 231.772 41.6597C230.522 43.367 229.554 45.2626 228.904 47.2747C228.781 47.6923 228.665 48.0925 228.56 48.4348C228.468 48.7844 228.394 49.1388 228.339 49.4963C228.215 50.0499 228.133 50.6123 228.095 51.1784C228.06 51.6251 228.037 51.9673 228.019 52.2225C227.995 52.3486 227.987 52.4773 227.996 52.6054Z" fill="#263238"/>
</g>
<defs>
<clipPath id="clip0_3286_69498">
<rect width="350" height="257" fill="white"/>
</clipPath>
</defs>
</svg>
