<svg width="48" height="56" viewBox="0 0 48 56" fill="none" xmlns="http://www.w3.org/2000/svg">
<path d="M30.0147 0.115126C21.7369 -0.186093 13.4602 0.104272 5.1836 0.985004C2.88128 1.22939 1.07848 3.07317 0.894695 5.38037C-0.298232 20.339 -0.298232 35.2978 0.894695 50.2577C1.0786 52.5649 2.88128 54.4087 5.1836 54.6531C17.529 55.967 29.8757 55.967 42.2223 54.6531C44.5234 54.4087 46.3273 52.5649 46.5112 50.2577C47.4016 39.0846 47.6279 27.9128 47.1875 16.741" fill="#408AFF"/>
<path d="M47.1875 16.741C43.1187 16.5946 39.05 16.3043 34.9801 15.8711C32.679 15.6267 30.8751 13.7829 30.6912 11.4757C30.3887 7.68891 30.1637 3.90208 30.0148 0.115126C34.0835 0.261467 47.0387 12.9542 47.1875 16.741Z" fill="#002064"/>
<path d="M28.4403 19.4304H16.6648C16.1445 19.4304 15.7226 19.0085 15.7226 18.4882C15.7226 17.9678 16.1445 17.546 16.6648 17.546H28.4403C28.9607 17.546 29.3825 17.9678 29.3825 18.4882C29.3825 19.0084 28.9607 19.4304 28.4403 19.4304V19.4304Z" fill="white"/>
<path d="M39.3864 23.7741H16.6648C16.1445 23.7741 15.7226 23.3523 15.7226 22.832C15.7226 22.3116 16.1445 21.8898 16.6648 21.8898H39.3863C39.9066 21.8898 40.3285 22.3116 40.3285 22.832C40.3286 23.3523 39.9068 23.7741 39.3864 23.7741V23.7741Z" fill="white"/>
<path d="M28.4403 31.4594H16.6648C16.1445 31.4594 15.7226 31.0376 15.7226 30.5172C15.7226 29.9968 16.1445 29.575 16.6648 29.575H28.4403C28.9607 29.575 29.3825 29.9968 29.3825 30.5172C29.3825 31.0376 28.9607 31.4594 28.4403 31.4594V31.4594Z" fill="white"/>
<path d="M39.0063 35.8028H16.6643C16.144 35.8028 15.7221 35.381 15.7221 34.8606C15.7221 34.3402 16.144 33.9184 16.6643 33.9184H39.0063C39.5267 33.9184 39.9485 34.3402 39.9485 34.8606C39.9485 35.3809 39.5267 35.8028 39.0063 35.8028Z" fill="white"/>
<path d="M28.4403 43.4884H16.6648C16.1445 43.4884 15.7226 43.0666 15.7226 42.5462C15.7226 42.0259 16.1445 41.604 16.6648 41.604H28.4403C28.9607 41.604 29.3825 42.0259 29.3825 42.5462C29.3825 43.0666 28.9607 43.4884 28.4403 43.4884V43.4884Z" fill="white"/>
<path d="M34.7425 47.8328H16.6643C16.144 47.8328 15.7221 47.411 15.7221 46.8906C15.7221 46.3703 16.144 45.9484 16.6643 45.9484H34.7425C35.2629 45.9484 35.6847 46.3703 35.6847 46.8906C35.6847 47.411 35.2629 47.8328 34.7425 47.8328Z" fill="white"/>
</svg>
