<svg width="32" height="32" viewBox="0 0 32 32" fill="none" xmlns="http://www.w3.org/2000/svg">
<circle cx="16" cy="16" r="16" fill="white"/>
<path d="M22.1283 12.0335L12.7002 21.4616C12.1795 21.9823 11.3353 21.9823 10.8146 21.4616C10.2939 20.9409 10.2939 20.0967 10.8146 19.576L20.2426 10.1479C20.7633 9.62718 21.6076 9.62718 22.1283 10.1479C22.649 10.6686 22.649 11.5128 22.1283 12.0335Z" fill="#FF0000"/>
<path d="M10.3432 11.9621L19.7712 21.3902C20.2919 21.9109 21.1362 21.9109 21.6569 21.3902C22.1776 20.8695 22.1776 20.0253 21.6569 19.5046L12.2288 10.0765C11.7081 9.55578 10.8639 9.55578 10.3432 10.0765C9.82245 10.5972 9.82245 11.4414 10.3432 11.9621Z" fill="#FF0000"/>
</svg>
