<svg width="24" height="24" viewBox="0 0 24 24" fill="none" xmlns="http://www.w3.org/2000/svg">
<path fill-rule="evenodd" clip-rule="evenodd" d="M12.622 13.3209C12.383 14.1359 11.63 14.1499 11.379 13.3209C11.09 12.365 10.063 8.736 10.063 6.37895C10.063 3.26896 13.9541 3.25399 13.9541 6.37895C13.953 8.74999 12.871 12.473 12.622 13.3209ZM12 19.6599C11.062 19.6599 10.4201 18.9369 10.4201 17.9999C10.4201 17.0358 11.089 16.3398 12 16.3398C12.963 16.3398 13.5801 17.0358 13.5801 17.9999C13.5801 18.9378 12.963 19.6599 12 19.6599ZM12 0C5.37305 0 0 5.37299 0 12C0 18.627 5.37305 24 12 24C18.627 24 24 18.627 24 12C24 5.37299 18.627 0 12 0Z" fill="#FF0000"/>
<mask id="mask0_2970_62968" style="mask-type:alpha" maskUnits="userSpaceOnUse" x="0" y="0" width="24" height="24">
<path fill-rule="evenodd" clip-rule="evenodd" d="M12.622 13.3209C12.383 14.1359 11.63 14.1499 11.379 13.3209C11.09 12.365 10.063 8.736 10.063 6.37895C10.063 3.26896 13.9541 3.25399 13.9541 6.37895C13.953 8.74999 12.871 12.473 12.622 13.3209ZM12 19.6599C11.062 19.6599 10.4201 18.9369 10.4201 17.9999C10.4201 17.0358 11.089 16.3398 12 16.3398C12.963 16.3398 13.5801 17.0358 13.5801 17.9999C13.5801 18.9378 12.963 19.6599 12 19.6599ZM12 0C5.37305 0 0 5.37299 0 12C0 18.627 5.37305 24 12 24C18.627 24 24 18.627 24 12C24 5.37299 18.627 0 12 0Z" fill="white"/>
</mask>
<g mask="url(#mask0_2970_62968)">
</g>
</svg>
