<svg width="32" height="33" viewBox="0 0 32 33" fill="none" xmlns="http://www.w3.org/2000/svg">
<path fill-rule="evenodd" clip-rule="evenodd" d="M16.5529 17.6742C16.3405 18.3986 15.6711 18.4111 15.448 17.6742C15.1911 16.8245 14.2782 13.5987 14.2782 11.5035C14.2782 8.7391 17.7369 8.7258 17.7369 11.5035C17.736 13.6111 16.7742 16.9205 16.5529 17.6742M16 23.3089C15.1662 23.3089 14.5956 22.6662 14.5956 21.8333C14.5956 20.9764 15.1902 20.3577 16 20.3577C16.856 20.3577 17.4045 20.9764 17.4045 21.8333C17.4045 22.6671 16.856 23.3089 16 23.3089M16 5.83334C10.1094 5.83334 5.33333 10.6093 5.33333 16.5C5.33333 22.3907 10.1094 27.1667 16 27.1667C21.8907 27.1667 26.6667 22.3907 26.6667 16.5C26.6667 10.6093 21.8907 5.83334 16 5.83334" fill="url(#paint0_linear_2196_61787)"/>
<mask id="mask0_2196_61787" style="mask-type:alpha" maskUnits="userSpaceOnUse" x="5" y="5" width="22" height="23">
<path fill-rule="evenodd" clip-rule="evenodd" d="M16.5529 17.6742C16.3405 18.3986 15.6711 18.4111 15.448 17.6742C15.1911 16.8245 14.2782 13.5987 14.2782 11.5035C14.2782 8.7391 17.7369 8.7258 17.7369 11.5035C17.736 13.6111 16.7742 16.9205 16.5529 17.6742M16 23.3089C15.1662 23.3089 14.5956 22.6662 14.5956 21.8333C14.5956 20.9764 15.1902 20.3577 16 20.3577C16.856 20.3577 17.4045 20.9764 17.4045 21.8333C17.4045 22.6671 16.856 23.3089 16 23.3089M16 5.83334C10.1094 5.83334 5.33333 10.6093 5.33333 16.5C5.33333 22.3907 10.1094 27.1667 16 27.1667C21.8907 27.1667 26.6667 22.3907 26.6667 16.5C26.6667 10.6093 21.8907 5.83334 16 5.83334" fill="white"/>
</mask>
<g mask="url(#mask0_2196_61787)">
<rect y="0.5" width="32" height="32" fill="white"/>
</g>
<defs>
<linearGradient id="paint0_linear_2196_61787" x1="5.33333" y1="27.9887" x2="26.6667" y2="27.9887" gradientUnits="userSpaceOnUse">
<stop stop-color="#E40611"/>
<stop offset="1" stop-color="#FF0E41"/>
</linearGradient>
</defs>
</svg>
