<svg width="32" height="32" viewBox="0 0 32 32" fill="none" xmlns="http://www.w3.org/2000/svg">
<path fill-rule="evenodd" clip-rule="evenodd" d="M16.8294 17.7613C16.5107 18.8479 15.5067 18.8666 15.172 17.7613C14.7867 16.4867 13.4173 11.648 13.4173 8.50529C13.4173 4.35864 18.6054 4.33868 18.6054 8.50529C18.604 11.6667 17.1613 16.6307 16.8294 17.7613M16 26.2133C14.7493 26.2133 13.8934 25.2493 13.8934 24C13.8934 22.7146 14.7853 21.7866 16 21.7866C17.2841 21.7866 18.1068 22.7146 18.1068 24C18.1068 25.2506 17.2841 26.2133 16 26.2133M16 0C7.16406 0 0 7.16398 0 16C0 24.836 7.16406 32 16 32C24.836 32 32 24.836 32 16C32 7.16398 24.836 0 16 0" fill="url(#paint0_linear_679_2813)"/>
<mask id="mask0_679_2813" style="mask-type:alpha" maskUnits="userSpaceOnUse" x="0" y="0" width="32" height="32">
<path fill-rule="evenodd" clip-rule="evenodd" d="M16.8294 17.7613C16.5107 18.8479 15.5067 18.8666 15.172 17.7613C14.7867 16.4867 13.4173 11.648 13.4173 8.50529C13.4173 4.35864 18.6054 4.33868 18.6054 8.50529C18.604 11.6667 17.1613 16.6307 16.8294 17.7613M16 26.2133C14.7493 26.2133 13.8934 25.2493 13.8934 24C13.8934 22.7146 14.7853 21.7866 16 21.7866C17.2841 21.7866 18.1068 22.7146 18.1068 24C18.1068 25.2506 17.2841 26.2133 16 26.2133M16 0C7.16406 0 0 7.16398 0 16C0 24.836 7.16406 32 16 32C24.836 32 32 24.836 32 16C32 7.16398 24.836 0 16 0" fill="white"/>
</mask>
<g mask="url(#mask0_679_2813)">
<rect x="-8.00002" y="-8" width="48" height="48" fill="white"/>
</g>
<defs>
<linearGradient id="paint0_linear_679_2813" x1="0" y1="33.233" x2="32" y2="33.233" gradientUnits="userSpaceOnUse">
<stop stop-color="#E40611"/>
<stop offset="1" stop-color="#FF0E41"/>
</linearGradient>
</defs>
</svg>
