<svg width="24" height="24" viewBox="0 0 24 24" fill="none" xmlns="http://www.w3.org/2000/svg">
<path fill-rule="evenodd" clip-rule="evenodd" d="M22.0773 12.75L18 5.24484H10.063L2.13145 10.7041L4.42749 19.3012L10.063 21.9552L17.0205 18L22.0773 12.75Z" fill="#FF6A6A"/>
<path fill-rule="evenodd" clip-rule="evenodd" d="M11.9906 0C5.36869 0 0 5.36847 0 11.9906C0 18.6128 5.36869 23.9812 11.9906 23.9812C18.6133 23.9812 23.9812 18.6128 23.9812 11.9906C23.9812 5.36847 18.613 0 11.9906 0Z" fill="#40D124"/>
<mask id="mask0_725_2848" style="mask-type:alpha" maskUnits="userSpaceOnUse" x="0" y="0" width="24" height="24">
<path fill-rule="evenodd" clip-rule="evenodd" d="M11.9906 0C5.36869 0 0 5.36847 0 11.9906C0 18.6128 5.36869 23.9812 11.9906 23.9812C18.6133 23.9812 23.9812 18.6128 23.9812 11.9906C23.9812 5.36847 18.613 0 11.9906 0Z" fill="white"/>
</mask>
<g mask="url(#mask0_725_2848)">
<path d="M6.18811 11.9404C6.05233 12.0976 5.98626 12.2976 6.00239 12.5043C6.01851 12.7111 6.11423 12.8992 6.2729 13.0336L10.1241 16.3134C10.2672 16.4349 10.4446 16.5 10.6308 16.5C10.6537 16.5 10.6771 16.499 10.7006 16.4969C10.9112 16.4783 11.1011 16.3785 11.2353 16.2168L17.8225 8.25177C17.9546 8.09155 18.0165 7.88998 17.9962 7.68376C17.9754 7.47755 17.876 7.29148 17.7148 7.15969L16.5089 6.17563C16.1765 5.90481 15.6843 5.95235 15.4107 6.28261L10.3411 12.4128L8.30387 10.6788C7.97717 10.4018 7.48399 10.4385 7.20359 10.7631L6.18811 11.9404Z" fill="white"/>
</g>
</svg>
