<svg width="24" height="24" viewBox="0 0 24 24" fill="none" xmlns="http://www.w3.org/2000/svg">
<path d="M16.1167 7.02584C15.844 6.75312 15.4804 6.75312 15.2077 7.02584L7.02584 15.2077C6.75311 15.4804 6.75311 15.844 7.02584 16.1167C7.29856 16.3895 7.6622 16.3895 7.93493 16.1167L16.1167 7.93493C16.3895 7.66221 16.3895 7.29857 16.1167 7.02584Z" fill="#222222"/>
<path d="M16.1167 16.1167C16.3895 15.844 16.3895 15.4804 16.1167 15.2076L7.93493 7.02583C7.6622 6.75311 7.29856 6.75311 7.02583 7.02583C6.75311 7.29856 6.75311 7.6622 7.02583 7.93492L15.2077 16.1167C15.4804 16.3895 15.844 16.3895 16.1167 16.1167Z" fill="#222222"/>
</svg>
